# xmcd
#
# Track frame offsets: 
#        187
#        17290
#        33135
#        52545
#        66105
#        79547
#        97545
#        113920
#        131027
#        147870
#
# Disc length: 2224 seconds
#
# Revision: 4
# Processed by: cddbd v1.5.2PL0 Copyright (c) Steve Scherf et al.
# Submitted via: ExactAudioCopy v0.99pb4
#
DISCID=6708ae0a
DTITLE=Restless Heart - Wheels
DYEAR=1986
DGENRE=Country
TTITLE0=Wheels
TTITLE1=That Rock Won't Roll
TTITLE2=I'll Still Be Loving You
TTITLE3=Why Does It Have To Be (Wrong Or Right)
TTITLE4=Hummingbird
TTITLE5=The Boy's On A Roll
TTITLE6=Hard Time
TTITLE7=Victim Of The Game
TTITLE8=New York (Hold Her Tight)
TTITLE9=We Owned This Town
EXTD=
EXTT0=
EXTT1=
EXTT2=
EXTT3=
EXTT4=
EXTT5=
EXTT6=
EXTT7=
EXTT8=
EXTT9=
PLAYORDER=
